<?xml version="1.0" encoding="utf-8"?>
<!-- Generator: Adobe Illustrator 19.1.0, SVG Export Plug-In . SVG Version: 6.00 Build 0)  -->
<svg version="1.1" id="Layer_1" xmlns="http://www.w3.org/2000/svg" xmlns:xlink="http://www.w3.org/1999/xlink" x="0px" y="0px"
	 viewBox="0 0 414.2 189.6" enable-background="new 0 0 414.2 189.6" xml:space="preserve">
<g>
	<g id="XMLID_604_">
		<path id="XMLID_681_" fill="#FFFFFF" d="M76,92.6V31.5h29.8c14.4,0,20.4,6.5,20.4,15.7c0,6.8-4.5,12.3-13.4,14
			c10.6,1.3,15.1,7.2,15.1,14.9c0,10.6-8.4,16.4-22.3,16.4H76z M92.7,56.4h8.1c5.8,0,8.2-2.4,8.2-7.3c0-5-2.4-7.3-8.2-7.3h-8.1V56.4
			z M101.4,82.4c6.4,0,9.2-2.4,9.2-7.9c0-5.6-2.8-7.9-9.2-7.9h-8.6v15.9H101.4z"/>
		<path id="XMLID_679_" fill="#FFFFFF" d="M132.1,54.7h28.3v13.9h-28.3V54.7z"/>
		<path id="XMLID_677_" fill="#FFFFFF" d="M168.5,92.6V31.5h23.7l11.3,40.8l11.2-40.8h23.2v61.1h-16.1V47.7l-12.7,44.9h-13.9
			l-12.7-44.7v44.7H168.5z"/>
		<path id="XMLID_674_" fill="#FFFFFF" d="M245.3,62.2V62c0-19.8,11.3-31.8,28.7-31.8c17.4,0,28.6,12,28.6,31.8v0.2
			c0,19.8-11.3,31.8-28.6,31.8C256.6,93.9,245.3,82,245.3,62.2z M285.2,62.2V62c0-14.7-4.3-20.7-11.2-20.7c-7,0-11.3,6-11.3,20.7
			v0.2c0,14.7,4.3,20.7,11.3,20.7C280.9,82.8,285.2,76.8,285.2,62.2z"/>
		<path id="XMLID_638_" fill="#FFFFFF" d="M334.3,70.2h-7.5v22.4h-16.8V31.5h27.4c16.5,0,23.8,7.9,23.8,19.5
			c0,7.8-3.9,12.8-11.7,15.9l14.2,25.7h-18.1L334.3,70.2z M326.8,59h8c6.3,0,8.9-2.7,8.9-8.2c0-5.4-2.6-8.1-8.9-8.1h-8V59z"/>
		<path id="XMLID_636_" fill="#FFFFFF" d="M369.9,31.5h44.2v11.9h-27.5v12h23.6v11.8h-23.6v13.5h27.5v11.9h-44.2V31.5z"/>
	</g>
	<g id="XMLID_589_">
		<path id="XMLID_602_" fill="#FFFFFF" d="M97.4,136l-6.4,8.2v14H75.6v-56.3h15.4v24.3l17.5-24.3h16.6L108.4,125l18.5,33.2H109
			L97.4,136z"/>
		<path id="XMLID_600_" fill="#FFFFFF" d="M133,101.9h15.4v56.3H133V101.9z"/>
		<path id="XMLID_598_" fill="#FFFFFF" d="M185.4,113.8v44.4h-15.5v-44.4h-15.3v-11.9h46.2v11.9H185.4z"/>
		<path id="XMLID_596_" fill="#FFFFFF" d="M229.1,100.7c14.2,0,21.8,7.6,23.7,20.1l-14.1,1.7c-1.1-8.1-4-11.5-9.4-11.5
			c-6.5,0-10.5,5.1-10.5,19v0.2c0,14,4.1,19,10.5,19c5.1,0,8.5-2.9,9.8-12l14.2,1.6c-1.8,14-10.9,20.7-24.2,20.7
			c-16.2,0-26.4-11.1-26.4-29.3V130C202.7,112.2,212.6,100.7,229.1,100.7z"/>
		<path id="XMLID_594_" fill="#FFFFFF" d="M259.8,101.9h15.4v21.7h17.1v-21.7h15.5v56.3h-15.5V136h-17.1v22.2h-15.4V101.9z"/>
		<path id="XMLID_592_" fill="#FFFFFF" d="M316.4,101.9h40.8v10.9h-25.3v11.1h21.7v10.9h-21.7v12.5h25.3v10.9h-40.8V101.9z"/>
		<path id="XMLID_590_" fill="#FFFFFF" d="M365.3,158.2v-56.3h14.6l20,31.9v-31.9h13.8v56.3h-13.9l-20.8-33.1v33.1H365.3z"/>
	</g>
	<rect id="XMLID_588_" x="1.1" y="166.7" fill="#FFFFFF" width="413.1" height="13.9"/>
	<rect id="XMLID_587_" x="1.1" y="9" fill="#FFFFFF" width="413.1" height="13.9"/>
	<g>
		<g>
			<path fill="#FFFFFF" d="M60.8,113.8V79.4c0-35.7-4.2-48.4-4.2-48.4C41.2,53,43.4,108.4,43.4,108.4c6.5,1.4,8.5,3.8,9.1,5.4l0.2,0
				H60.8z"/>
		</g>
		<g>
			<path fill="#FFFFFF" d="M60.8,115.3h-8.1c0,1.4-2.1,15.6-2.2,17.9c-0.2,2.4,0.2,9.6,0.2,11.6c0,2-3.2,5.3-3.2,5.3v0.5
				c0,6.9,5.7,7.6,7,7.6c2,0,5-1.1,5.8-5.4C61.2,148.6,60.8,115.3,60.8,115.3z M56.5,152.9c-0.6,0-1.1-0.5-1.1-1.1
				c0-0.6,0.5-1.1,1.1-1.1c0.6,0,1.1,0.5,1.1,1.1C57.6,152.4,57.1,152.9,56.5,152.9z M56.9,137.9c-0.6,0-1.1-0.5-1.1-1.1
				c0-0.6,0.5-1.1,1.1-1.1c0.6,0,1.1,0.5,1.1,1.1C58.1,137.4,57.6,137.9,56.9,137.9z M57.5,123.3c-0.6,0-1.1-0.5-1.1-1.1
				c0-0.6,0.5-1.1,1.1-1.1s1.1,0.5,1.1,1.1C58.6,122.7,58.1,123.3,57.5,123.3z"/>
		</g>
	</g>
	<g>
		<g>
			<path fill="none" d="M19.2,108.1c0,0.1,0,0.3,0,0.4l0,0C19.2,108.4,19.2,108.2,19.2,108.1z"/>
			<path fill="none" d="M22.6,57.7c0-13.3-2-18.5-3.4-20.5v70h0.1C20.2,99.3,22.6,74.9,22.6,57.7z"/>
			<path fill="none" d="M16.8,107.2L16.8,107.2l0.1-70c-1.4,2-3.4,7.2-3.4,20.5C13.5,74.9,15.9,99.3,16.8,107.2z"/>
			<path fill="none" d="M16.8,107.7c0,0.1,0,0.3,0,0.4C16.9,108,16.8,107.8,16.8,107.7L16.8,107.7z"/>
			<path fill="none" d="M22.4,101.5c2-10.3,5.6-30.4,5.6-45.2c0-12-3.2-17.4-6-19.8c1.6,3.2,3.2,9.3,3.2,21.1
				C25.1,71.8,23.5,90.7,22.4,101.5z"/>
			<rect x="19.3" y="107.7" fill="none" width="0" height="2.3"/>
			<path fill="none" d="M26.7,38.4c2.5,4.3,3.7,10.3,3.7,18c0,11-1.9,24.7-3.5,34.3c-0.8,4.8-1.6,9.1-2.3,12.3
				c2.9-9.7,8.6-31.1,8.6-46.6C33.3,48.2,31.1,42.2,26.7,38.4z"/>
			<path fill="none" d="M5.3,56.4c0-7.6,1.2-13.7,3.7-18c-4.3,3.8-6.5,9.8-6.5,18c0,15.5,5.8,37,8.6,46.6
				C9.1,92.9,5.3,71.8,5.3,56.4z"/>
			<path fill="none" d="M14.1,105.5C13.1,96,11,73.7,11,57.7c0-12.5,1.7-18.6,3.5-21.6c-2.9,2.1-6.7,7.3-6.7,20.3
				C7.7,73.4,12.4,97.4,14.1,105.5z"/>
			<path fill="#FFFFFF" d="M27.8,35.7c-4.8-3.9-9.7-4-9.9-4c-0.2,0-5.1,0-9.9,4C1.4,41.1,0,49.9,0,56.4c0,8.8,1.7,20.4,5.2,34.4
				c2.5,10.4,5.1,18.3,5.2,18.4l0.3,0.9l0,0l0,0h0h1.9h2h2.2h2.5h2.2h1.6h1.9l0,0l0,0l0.3-0.9c0-0.1,2.6-8,5.2-18.4
				c3.4-14,5.2-25.5,5.2-34.4C35.7,49.9,34.3,41.1,27.8,35.7z M28,56.4c0,14.8-3.5,34.9-5.6,45.2c1.1-10.8,2.7-29.7,2.7-43.9
				c0-11.8-1.5-17.9-3.2-21.1C24.7,39,28,44.4,28,56.4z M19.3,37.2c1.4,2,3.4,7.2,3.4,20.5c0,17.2-2.5,41.7-3.3,49.5h-0.1V37.2z
				 M19.2,108.1c0,0.1,0,0.3,0,0.4l0,0C19.2,108.4,19.2,108.2,19.2,108.1z M16.9,108.1c0-0.1,0-0.3,0-0.4v0
				C16.8,107.8,16.9,108,16.9,108.1z M16.8,107.2L16.8,107.2c-0.9-7.9-3.4-32.3-3.4-49.5c0-13.2,2-18.5,3.4-20.5V107.2z M14.5,36
				c-1.8,3-3.5,9.2-3.5,21.6c0,16.1,2.1,38.3,3.1,47.8c-1.7-8.1-6.4-32.2-6.4-49.1C7.7,43.3,11.5,38.1,14.5,36z M2.5,56.4
				c0-8.1,2.2-14.2,6.5-18c-2.5,4.3-3.7,10.3-3.7,18c0,15.4,3.8,36.5,5.8,46.6C8.2,93.3,2.5,71.9,2.5,56.4z M19.3,110v-2.3v0V110
				L19.3,110z M24.7,103c0.6-3.2,1.5-7.5,2.3-12.3c1.6-9.6,3.5-23.3,3.5-34.3c0-7.7-1.2-13.7-3.7-18c4.3,3.8,6.5,9.8,6.5,18
				C33.3,71.9,27.5,93.3,24.7,103z"/>
		</g>
		<path fill="#FFFFFF" d="M25.1,111.6H10.6V156c0,1.3,1.1,2.4,2.4,2.4h9.7c1.3,0,2.4-1.1,2.4-2.4V111.6z"/>
	</g>
</g>
</svg>
